<svg xmlns="http://www.w3.org/2000/svg" version="1.1" xmlns:xlink="http://www.w3.org/1999/xlink" xmlns:svgjs="http://svgjs.dev/svgjs" width="1000" height="623" viewBox="0 0 1000 623"><g transform="matrix(1,0,0,1,-0.6060606060606233,0.2522267206477409)"><svg viewBox="0 0 396 247" data-background-color="#ffffff" preserveAspectRatio="xMidYMid meet" height="623" width="1000" xmlns="http://www.w3.org/2000/svg" xmlns:xlink="http://www.w3.org/1999/xlink"><g id="tight-bounds" transform="matrix(1,0,0,1,0.2400000000000091,-0.09999999999999432)"><svg viewBox="0 0 395.52 247.2" height="247.2" width="395.52"><g><svg></svg></g><g><svg viewBox="0 0 395.52 247.2" height="247.2" width="395.52"><g transform="matrix(1,0,0,1,118.16662439024388,47.215199999999996)"><svg viewBox="0 0 159.18675121951222 152.7696" height="152.7696" width="159.18675121951222"><g><svg viewBox="0 0 159.18675121951222 152.7696" height="152.7696" width="159.18675121951222"><g><svg viewBox="0 0 159.18675121951222 152.7696" height="152.7696" width="159.18675121951222"><g><svg viewBox="0 0 159.18675121951222 152.7696" height="152.7696" width="159.18675121951222"><g id="textblocktransform"><svg viewBox="0 0 159.18675121951222 152.7696" height="152.7696" width="159.18675121951222" id="textblock"><g><svg viewBox="0 0 159.18675121951222 152.7696" height="152.7696" width="159.18675121951222"><g transform="matrix(1,0,0,1,0,0)"><svg width="159.18675121951222" viewBox="2.450000047683716 -36.900001525878906 38.45000076293945 36.900001525878906" height="152.7696" data-palette-color="#bb84e8"><path d="M8.4 0L2.45 0 6.7-36.9 12.7-36.9 21.65-7.35 30.55-36.9 36.55-36.9 40.9 0 34.9 0 31.5-29 32.5-28.9 24.5 0 18.7 0 10.6-28.9 11.65-28.95 8.4 0Z" opacity="1" transform="matrix(1,0,0,1,0,0)" fill="#bb84e8" class="undefined-text-0" data-fill-palette-color="primary" id="text-0"></path></svg></g></svg></g></svg></g></svg></g></svg></g></svg></g></svg></g><path d="M300.468 41.215L300.468 0 53.268 0 53.268 247.2 300.468 247.2 300.468 205.985 286.691 205.985 286.691 233.423 67.045 233.423 67.045 13.777 286.691 13.777 286.691 41.215Z" fill="#bb84e8" stroke="transparent" data-fill-palette-color="primary"></path></svg></g><defs></defs></svg><rect width="395.52" height="247.2" fill="none" stroke="none" visibility="hidden"></rect></g></svg></g></svg>